<svg width="13" height="11" fill="none" xmlns="http://www.w3.org/2000/svg"><path d="M13 1.47a5.557 5.557 0 0 1-1.536.42A2.65 2.65 0 0 0 12.637.417a5.326 5.326 0 0 1-1.69.645 2.664 2.664 0 0 0-4.61 1.822c0 .212.018.415.061.608A7.544 7.544 0 0 1 .905.705a2.669 2.669 0 0 0 .819 3.562A2.632 2.632 0 0 1 .52 3.938v.03c0 1.295.924 2.37 2.135 2.618a2.66 2.66 0 0 1-.698.088c-.171 0-.343-.01-.505-.045a2.69 2.69 0 0 0 2.49 1.856A5.355 5.355 0 0 1 .638 9.622c-.219 0-.428-.01-.638-.037a7.503 7.503 0 0 0 4.088 1.196c4.905 0 7.586-4.062 7.586-7.584 0-.117-.004-.231-.01-.344A5.317 5.317 0 0 0 13 1.469Z" fill="#000"/></svg>